# xmcd
#
# Track frame offsets: 
#        150
#        12370
#        27501
#        40589
#        58126
#        69241
#        84013
#        96802
#        108014
#        122006
#        134417
#        145500
#        157272
#        170650
#
# Disc length: 2397 seconds
#
# Revision: 0
# Processed by: cddbd v1.5.2PL0 Copyright (c) Steve Scherf et al.
# Submitted via: ExactAudioCopy v1.0b3
#
DISCID=b1095b0e
DTITLE=Amber Digby - The World You're Living In
DYEAR=2013
DGENRE=Country
TTITLE0=It's a Long Way from Heaven (to the World That You're Living I
TTITLE0=n)
TTITLE1=One More Thing I Wished I'd Said
TTITLE2=How Can I Unlove You
TTITLE3=She'd Already Won Your Heart
TTITLE4=Saturday Night
TTITLE5=You Leave Again
TTITLE6=The One I Can't Live Without (With Vince Gill) [feat. Vince Gi
TTITLE6=ll]
TTITLE7=It Won't Be Long (and I'll Be Hating You)
TTITLE8=Where Will You Go
TTITLE9=My Imagination
TTITLE10=We Loved It Away (feat. Randy Lindley)
TTITLE11=If It Ain't Love (Lets Leave It Alone)
TTITLE12=You Put Me Here
TTITLE13=Little Darlin' (feat. Lloyd Green)
EXTD=
EXTT0=
EXTT1=
EXTT2=
EXTT3=
EXTT4=
EXTT5=
EXTT6=
EXTT7=
EXTT8=
EXTT9=
EXTT10=
EXTT11=
EXTT12=
EXTT13=
PLAYORDER=
